<?xml version="1.0" encoding="utf-8"?>
<!-- Generator: Adobe Illustrator 19.1.0, SVG Export Plug-In . SVG Version: 6.00 Build 0)  -->
<svg version="1.1" id="Layer_1" xmlns="http://www.w3.org/2000/svg" xmlns:xlink="http://www.w3.org/1999/xlink" x="0px" y="0px"
	 viewBox="-53 144.9 504.1 504.1" style="enable-background:new -53 144.9 504.1 504.1;" xml:space="preserve">
<style type="text/css">
	.st0{fill:#349886;}
	.st1{fill:#EBEDEE;}
	.st2{fill:#3DB39E;}
	.st3{fill:#324D5B;}
	.st4{fill:#2B424D;}
	.st5{fill:#F6F6F6;}
	.st6{fill:#A3E0F5;}
	.st7{fill:#4BC2AD;}
	.st8{fill:#EFC75E;}
</style>
<path class="st0" d="M53.3,160.6h330.8c30.3,0,55.1,24.8,55.1,55.1v362.3c0,30.3-24.8,55.1-55.1,55.1H53.3
	c-30.3,0-55.1-24.8-55.1-55.1V215.8C-1.8,185.4,23,160.6,53.3,160.6z"/>
<path class="st1" d="M37.6,160.6h330.8c30.3,0,55.1,24.8,55.1,55.1v362.3c0,30.3-24.8,55.1-55.1,55.1H37.6
	c-30.3,0-55.1-24.8-55.1-55.1V215.8C-17.6,185.4,7.3,160.6,37.6,160.6z"/>
<path class="st2" d="M14,152.8h330.8c30.3,0,55.1,24.8,55.1,55.1V586c0,30.3-24.8,55.1-55.1,55.1H14c-30.3,0-55.1-24.8-55.1-55.1
	V207.9C-41.2,177.6-16.4,152.8,14,152.8z"/>
<path class="st3" d="M14,641.1h23.6V152.8H14c-30.3,0-55.1,24.8-55.1,55.1V586C-41.2,616.3-16.4,641.1,14,641.1z"/>
<path class="st4" d="M21.8,152.8h15.8v488.4H21.8V152.8z"/>
<path class="st5" d="M81.2,265.7h271c8.5,0,15.5,6.9,15.5,15.4v199.7c0,8.5-6.9,15.4-15.5,15.4h-271c-8.6,0-15.5-6.9-15.5-15.4V281
	C65.7,272.5,72.6,265.7,81.2,265.7L81.2,265.7z"/>
<path class="st6" d="M97.9,286h237.4c6.6,0,11.9,5.3,11.9,11.8v165.8c0,6.5-5.3,11.8-11.9,11.8H97.9c-6.6,0-11.9-5.3-11.9-11.8
	V297.9C86.1,291.3,91.4,286,97.9,286L97.9,286z"/>
<path class="st2" d="M106.6,419.1c-7.1,0-14,0.6-20.6,1.6v42.9c0,6.5,5.3,11.8,11.9,11.8h89.5c0.7-2.5,1.1-5.1,1.1-7.7
	C188.6,440.9,151.9,419.1,106.6,419.1L106.6,419.1z"/>
<path class="st7" d="M347.2,463.7v-63.7c-15.9-4.1-33.3-6.3-51.5-6.3c-73.7,0-133.5,36.7-133.5,81.9h173.2
	C341.9,475.5,347.2,470.2,347.2,463.7z"/>
<path class="st8" d="M86.1,297.9v59.3c2.5,0.3,5.1,0.5,7.7,0.5c35.3,0,64-28.6,64-64c0-2.6-0.2-5.2-0.5-7.7H97.9
	C91.4,286,86.1,291.3,86.1,297.9z"/>
</svg>
