<?xml version="1.0" encoding="utf-8"?>
<!-- Generator: Adobe Illustrator 19.1.0, SVG Export Plug-In . SVG Version: 6.00 Build 0)  -->
<svg version="1.1" id="Layer_1" xmlns="http://www.w3.org/2000/svg" xmlns:xlink="http://www.w3.org/1999/xlink" x="0px" y="0px"
	 viewBox="-45 168.8 504.1 504.1" style="enable-background:new -45 168.8 504.1 504.1;" xml:space="preserve">
<style type="text/css">
	.st0{fill:#EFEFEF;}
	.st1{fill:#FFFFFF;}
	.st2{fill:#324D5B;}
	.st3{fill:#EBEBEB;}
	.st4{fill:#EFC75E;}
	.st5{fill:#5B717C;}
</style>
<path class="st0" d="M-21.4,168.8h456.9c13,0,23.6,10.6,23.6,23.6v456.9c0,13-10.6,23.6-23.6,23.6H-21.4c-13,0-23.6-10.6-23.6-23.6
	V192.4C-45,179.4-34.4,168.8-21.4,168.8z"/>
<path class="st1" d="M2.3,204.2h409.6c8.7,0,15.8,8.4,15.8,18.6v400c0,10.2-7.1,18.6-15.8,18.6H2.3c-8.7,0-15.8-8.4-15.8-18.6v-400
	C-13.5,212.6-6.4,204.2,2.3,204.2z"/>
<path class="st2" d="M41.6,279h330.8c8.7,0,15.8,7.1,15.8,15.8v94.5c0,8.7-7.1,15.8-15.8,15.8H41.6c-8.7,0-15.8-7.1-15.8-15.8v-94.5
	C25.9,286.1,33,279,41.6,279z"/>
<path class="st3" d="M41.6,451.9h130c8.7,0,15.8,7.1,15.8,15.8v86.6c0,8.7-7.1,15.8-15.8,15.8h-130c-8.7,0-15.8-7.1-15.8-15.8v-86.6
	C25.9,459,33,451.9,41.6,451.9z M376.4,451.9H230.7c-6.7,0-11.8,5.1-11.8,11.8s5.1,11.8,11.8,11.8h145.7c6.7,0,11.8-5.1,11.8-11.8
	C388.2,457.4,383.1,451.9,376.4,451.9z M376.4,499.2H230.7c-6.7,0-11.8,5.1-11.8,11.8s5.1,11.8,11.8,11.8h145.7
	c6.7,0,11.8-5.1,11.8-11.8C388.2,504.7,383.1,499.2,376.4,499.2z M376.4,546.4H230.7c-6.7,0-11.8,5.1-11.8,11.8s5.1,11.8,11.8,11.8
	h145.7c6.7,0,11.8-5.1,11.8-11.8C388.2,551.9,383.1,546.4,376.4,546.4z"/>
<path class="st4" d="M216.9,310.5c-2.4,20.1-13.4,31.1-33.5,33.5c20.1,2.4,31.1,13.4,33.5,33.5c2.4-20.1,13.4-31.1,33.5-33.5
	C230.3,341.7,219.3,330.6,216.9,310.5z M83,326.3c-1.6,15.4-10.2,24-25.6,25.6c15.4,1.6,24,10.2,25.6,25.6
	c1.6-15.4,10.2-24,25.6-25.6C93.2,350.3,84.6,341.7,83,326.3z"/>
<path class="st5" d="M136.2,302.7c-1.2,11.8-7.9,18.5-19.7,19.7c11.8,1.2,18.5,7.9,19.7,19.7c1.2-11.8,7.9-18.5,19.7-19.7
	C144,321.2,137.4,314.5,136.2,302.7z M299.6,342.1c-1.2,10.6-7.1,16.5-17.7,17.7c10.6,1.2,16.5,7.1,17.7,17.7
	c1.2-10.6,7.1-16.5,17.7-17.7C306.7,358.6,300.8,352.7,299.6,342.1z M341,302.7c-1.2,11.8-7.9,18.5-19.7,19.7
	c11.8,1.2,18.5,7.9,19.7,19.7c1.2-11.8,7.9-18.5,19.7-19.7C348.8,321.2,342.2,314.5,341,302.7z"/>
</svg>
