<?xml version="1.0" encoding="utf-8"?>
<svg version="1.1" id="logo" xmlns="http://www.w3.org/2000/svg" xmlns:xlink="http://www.w3.org/1999/xlink" x="0px"
     y="0px" viewBox="0 0 345 95.2" enable-background="new 0 0 345 95.2" xml:space="preserve">
	<defs>
        <style>
            .black-text {fill: #6c6c6c;}
            .red-text {fill: #ad4747;}
        </style>
    </defs>
    <g>
	    <path class="black-text" d="M79,9.8c-0.5-0.3-1-0.6-1.6-0.7c-0.6-0.2-1.2-0.2-2-0.2c-1.7,0-3.4,0.5-5.2,1.6c-0.8,0.5-1.8,1.2-3,2.2
		c-1.2,1-2.4,2.2-3.6,3.4c-1.2,1.3-2.5,2.7-3.7,4.3c-1.2,1.6-2.3,3.2-3.3,4.8c-1,1.6-1.7,3.2-2.3,4.8c-0.6,1.6-0.9,3.1-0.9,4.6
		c0,1.4,0.4,2.4,1.3,3.1c0.9,0.7,1.9,1,3.2,1c3,0,6.7-1.8,11.2-5.3c1.1-0.9,2.1-1.8,3.1-2.6c0.9-0.9,1.8-1.8,2.6-2.7
		c0.8-0.9,1.7-1.8,2.5-2.8c0.8-1,1.8-2,2.8-3.1c1-1.1,1.9-2.2,2.9-3.3c1-1.1,2-2.2,3.2-3.3c0.8-0.8,1.6-1.6,2.7-2.4s2.1-1.6,3.1-2.4
		c1.1-0.8,2.1-1.5,3.1-2.2C96.1,8,97,7.4,97.7,7c1.8-1,3.5-1.9,5.1-2.7c1.6-0.8,3.2-1.5,4.7-2.1c1.6-0.6,3.1-1,4.7-1.3
		c1.6-0.3,3.2-0.4,4.9-0.4c1.1,0,2.2,0.1,3.4,0.3c1.1,0.2,2.1,0.5,3,1c0.9,0.5,1.6,1.1,2.1,1.8c0.5,0.7,0.8,1.7,0.7,2.8
		c0,0.6-0.2,1.2-0.5,1.6c-0.3,0.5-0.6,0.9-1,1.3c-0.4,0.4-0.8,0.7-1.3,0.9c-0.4,0.2-0.8,0.4-1.1,0.5c-0.3,0.1-0.6,0.1-0.9,0.2
		c-0.3,0.1-0.5,0.1-0.6,0c0-0.1,0-0.1,0.2-0.2c0.2,0,0.5-0.2,0.8-0.5c0.4-0.4,0.7-0.9,0.9-1.5c0.2-0.7,0.3-1.3,0.3-2
		c0-0.8-0.3-1.4-0.7-2c-0.4-0.6-0.9-1.1-1.6-1.5c-0.7-0.4-1.4-0.7-2.2-0.9c-0.8-0.2-1.6-0.3-2.5-0.3c-3.1,0-6.4,0.6-9.9,1.9
		c-3.5,1.2-6.7,2.9-9.8,5c-1,0.7-2.1,1.5-3.2,2.4c-1.1,0.9-2.2,1.9-3.2,2.9c1.7-1,3.4-1.9,5.1-2.5c1.7-0.7,3.3-1,4.9-1
		c1.8,0,3.3,0.6,4.5,1.6c1.2,1.1,1.7,3,1.7,5.6c0,5-2.8,10.3-8.3,15.8c-1,1-2.1,1.9-3.4,2.9c-1.3,1-2.6,1.8-4,2.6
		c-1.4,0.8-2.8,1.4-4.3,1.9s-2.8,0.7-4.2,0.7c-0.9,0-1.7-0.1-2.5-0.4c-0.8-0.2-1.6-0.6-2.2-1.2c-0.6-0.5-1.2-1.3-1.6-2.2
		c-0.4-0.9-0.6-2.1-0.6-3.5c0-0.6,0.1-1.3,0.2-2c0-0.1,0.1-0.3,0.1-0.5c0-0.2,0.1-0.4,0.1-0.6c-0.9,1.1-1.8,2.2-2.6,3.2
		c-0.9,1-1.7,2-2.6,3c-2.8,3.1-5.8,5.9-8.8,8.5c-3.1,2.6-6.4,4.9-9.9,6.8c-3.5,1.9-7.2,3.5-11.2,4.6c-3.9,1.2-8.1,1.8-12.6,2
		c-0.3,0-0.7,0.1-1,0.1c-0.3,0-0.7,0-1,0c-3.6,0-7-0.4-10.2-1.2c-3.2-0.8-5.9-2-8.3-3.6c-2.3-1.6-4.2-3.6-5.6-6
		c-1.4-2.4-2-5.2-2-8.3c0-2.3,0.4-4.4,1.2-6.3C2,32.4,3,30.6,4.4,29c1.4-1.6,3-3,4.8-4.2c1.8-1.2,3.8-2.2,5.9-3.1
		c2.1-0.8,4.3-1.4,6.6-1.9c2.3-0.4,4.6-0.6,6.9-0.6c2.4,0,4.8,0.3,7.2,0.8c2.4,0.6,4.6,1.4,6.5,2.5c1.9,1.1,3.5,2.6,4.7,4.3
		c1.2,1.7,1.8,3.8,1.8,6.2s-0.6,4.6-1.9,6.5c-1.3,1.9-2.9,3.6-4.9,4.9c-2,1.3-4.3,2.4-6.9,3.1c-2.6,0.7-5.2,1.1-7.8,1.1
		c-1.6,0-3.3-0.2-4.9-0.6c-1.6-0.4-3-0.9-4.3-1.7c-1.3-0.7-2.3-1.7-3.1-2.8c-0.8-1.1-1.2-2.5-1.2-4c0-0.5,0.1-1,0.2-1.5
		c0.2-0.5,0.4-1.1,0.6-1.5c0.2-0.5,0.5-0.9,0.8-1.2c0.3-0.3,0.5-0.5,0.8-0.5h0.1c0,0,0,0.1-0.2,0.2c-0.1,0.1-0.3,0.2-0.3,0.3
		c-0.5,0.6-0.8,1.2-1.1,1.8c-0.2,0.7-0.4,1.4-0.4,2.3c0,1.4,0.4,2.7,1.2,3.8c0.8,1.1,1.8,2,3,2.7c1.2,0.7,2.6,1.3,4.1,1.6
		c1.5,0.3,3.1,0.5,4.6,0.5c2.5,0,4.9-0.4,7.2-1c2.3-0.7,4.3-1.7,6.1-3c1.8-1.3,3.2-2.8,4.2-4.6c1-1.8,1.6-3.8,1.6-6.1
		c0-2.2-0.5-4.1-1.5-5.8c-1-1.7-2.3-3.1-3.9-4.3c-1.6-1.1-3.5-2-5.7-2.6c-2.2-0.6-4.4-0.9-6.7-0.9c-3.5,0-6.9,0.5-10.2,1.4
		c-3.3,0.9-6.2,2.3-8.7,4c-2.5,1.8-4.6,3.9-6.1,6.5c-1.5,2.6-2.3,5.5-2.3,8.9c0,3,0.6,5.7,1.9,8c1.3,2.3,3,4.3,5.2,5.9
		c2.2,1.6,4.8,2.8,7.8,3.6c3,0.8,6.2,1.2,9.6,1.2c4.7,0,9-0.6,12.8-1.9c3.9-1.3,7.5-3,10.7-5c3.3-2.1,6.3-4.4,9.1-7
		c2.8-2.6,5.5-5.2,8-7.9c0.5-0.5,0.9-1,1.4-1.5c0.5-0.5,0.9-1,1.4-1.5c-1.9,1.4-4,2.6-6.1,3.5c-2.2,0.9-4.2,1.4-6,1.4
		c-1.8,0-3.4-0.5-4.5-1.7c-1.2-1.1-1.8-3-1.8-5.6s0.7-5.2,2.1-7.7c1.4-2.5,3.5-5.2,6.4-8.1c1-1,2.1-1.9,3.3-2.9
		c1.2-1,2.5-1.8,3.9-2.6c1.4-0.8,2.8-1.4,4.3-1.9c1.5-0.5,2.9-0.7,4.2-0.7c0.8,0,1.5,0.1,2.3,0.3c0.8,0.2,1.5,0.5,2.1,1
		c1,0.7,1.8,1.6,2.3,2.8c0.6,1.1,0.8,2.4,0.7,3.9c0,1.3-0.4,2.5-1,3.6c-0.6,1.1-1.5,2-2.4,2.8c-1,0.8-2.1,1.4-3.4,1.8
		c-1.3,0.4-2.5,0.7-3.9,0.7c-0.8,0-1.6-0.1-2.4-0.2c-0.8-0.1-1.6-0.4-2.3-0.7c-0.7-0.3-1.3-0.7-1.8-1.2c-0.5-0.5-0.9-1.1-1.1-1.7
		c-1.3,1-3,1.8-5.2,2.4c-2.2,0.7-4.6,1-7.2,0.9c-1.8-0.2-3.5-0.7-5.1-1.4c-1.6-0.7-3.1-1.6-4.3-2.7c-1.2-1.1-2.2-2.5-3-4
		c-0.7-1.5-1.1-3.3-1-5.3c0-1.6,0.4-3,1-4.4C40.1,5.4,41,4.2,42,3.2c1-1,2.2-1.8,3.5-2.3C46.7,0.3,48.1,0,49.6,0
		c0.9,0,1.8,0.1,2.7,0.4c0.9,0.3,1.6,0.7,2.3,1.2c0.7,0.5,1.2,1.2,1.6,2c0.4,0.8,0.5,1.7,0.5,2.8c0,2.2-1,3.9-2.8,5.2
		c-0.2,0.1-0.4,0.2-0.5,0.3C53.1,12,53,12,53,11.9c0-0.1,0-0.2,0.2-0.3c0.2-0.1,0.3-0.2,0.5-0.4c0.7-0.6,1.2-1.3,1.6-2.1
		c0.4-0.8,0.6-1.8,0.7-2.9c0-1-0.2-1.8-0.5-2.5C55.1,3.1,54.6,2.5,54,2c-0.6-0.5-1.3-0.8-2-1c-0.8-0.2-1.6-0.3-2.4-0.3
		c-1.4,0-2.7,0.3-3.8,0.8c-1.2,0.6-2.2,1.3-3,2.3c-0.9,1-1.6,2.1-2.1,3.4c-0.5,1.3-0.8,2.7-0.8,4.3c-0.1,1.8,0.2,3.4,0.9,4.8
		c0.7,1.4,1.6,2.7,2.7,3.8c1.2,1.1,2.5,1.9,4,2.6c1.5,0.7,3.2,1.1,4.9,1.3c2.5,0,4.8-0.3,6.9-0.9c2.1-0.6,3.7-1.4,4.9-2.3
		c0-0.2-0.1-0.4-0.1-0.7c0-0.3,0-0.6,0-0.8c0.1-0.6,0.3-1,0.5-1.5c0.3-0.4,0.6-0.6,1-0.6c0.3,0,0.5,0.1,0.6,0.3
		c0.1,0.2,0.2,0.4,0.1,0.7c-0.1,0.9-0.6,1.8-1.6,2.7c0.2,0.6,0.5,1.1,1,1.6c0.5,0.5,1.1,0.8,1.7,1.1c0.7,0.3,1.4,0.5,2.2,0.7
		c0.8,0.1,1.5,0.2,2.3,0.2H72c1.2,0,2.4-0.2,3.5-0.6c1.2-0.4,2.2-1,3.1-1.8c0.9-0.8,1.7-1.6,2.3-2.6c0.6-1,0.9-2.1,0.9-3.3
		c0.1-1.4-0.1-2.6-0.7-3.6C80.7,11.4,79.9,10.5,79,9.8z M64.5,20.3c0.4-0.3,0.7-0.6,0.9-1c0.2-0.3,0.4-0.6,0.5-1c0-0.2,0-0.3,0-0.5
		c0-0.1-0.2-0.2-0.4-0.2c-0.3,0-0.6,0.2-0.8,0.6c-0.2,0.4-0.3,0.8-0.3,1.2c0,0.2,0,0.3,0,0.4C64.4,19.9,64.5,20.1,64.5,20.3z
		 M81.9,41.2c0.8,0,1.7-0.1,2.6-0.4c0.9-0.3,1.8-0.7,2.7-1.2c0.8-0.5,1.8-1.2,2.9-2.2c1.2-1,2.4-2.2,3.6-3.5
		c1.2-1.3,2.5-2.8,3.7-4.4c1.2-1.6,2.3-3.1,3.3-4.8c1-1.6,1.7-3.2,2.3-4.8c0.6-1.6,0.9-3.1,0.9-4.5c0-1.4-0.4-2.4-1.3-3.1
		c-0.8-0.6-1.9-1-3.2-1c-3,0-6.8,1.7-11.2,5.2c-0.3,0.3-0.6,0.6-0.9,0.8c-0.3,0.3-0.6,0.5-0.9,0.8c-1.3,1.4-2.5,2.8-3.7,4.3
		c-1.2,1.5-2.4,3.1-3.7,4.8c-0.3,0.4-0.6,0.8-0.9,1.2c-0.3,0.4-0.6,0.8-0.8,1.1c-0.8,1.9-1.3,3.6-1.3,5.3v0.7
		C76.2,39.3,78.1,41.2,81.9,41.2z"/>
        <path class="black-text" d="M117.7,41.4c0,0.1,0,0.2-0.1,0.3c0,0-0.1,0.1-0.2,0.1c-2.5,1.1-4.6,1.7-6.2,1.7c-1,0-1.8-0.3-2.4-1c-1,1-2.2,1.9-3.5,2.6
		c-1.3,0.7-2.6,1.1-3.9,1.1c-0.6,0-1-0.1-1.3-0.4c-0.3-0.3-0.5-0.7-0.5-1.4c0-0.8,0.4-1.8,1.1-2.9c0.7-1.2,1.6-2.3,2.7-3.4
		c1-1.1,2.1-2,3.2-2.8c1.1-0.8,2-1.1,2.7-1.1c0.2,0,0.4,0.1,0.6,0.2c0.2,0.1,0.3,0.3,0.3,0.4c0,0.1-0.1,0.1-0.2,0.1
		c-0.1,0-0.2,0-0.4,0c-0.5,0-1.2,0.3-2,0.9c-0.9,0.6-1.7,1.4-2.6,2.2c-0.8,0.8-1.6,1.7-2.2,2.6c-0.6,0.9-0.9,1.7-0.9,2.3
		c0,0.9,0.4,1.3,1.3,1.3c0.7,0,1.5-0.2,2.4-0.8c0.9-0.5,1.7-1.1,2.5-1.8c-0.3-0.5-0.4-1.2-0.4-2c0-0.6,0.1-1.1,0.3-1.7
		c0.2-0.6,0.4-1.1,0.8-1.5c0.3-0.4,0.7-0.8,1.2-1.1c0.5-0.3,1-0.4,1.5-0.4c0.8,0,1.1,0.4,1.1,1.1c0,0.6-0.3,1.4-0.8,2.4
		s-1.3,1.9-2.2,2.9c0.4,0.6,1.1,0.8,1.9,0.8c0.6,0,1.1-0.1,1.7-0.2c0.6-0.1,1.2-0.2,1.7-0.4c0.5-0.1,1-0.3,1.4-0.5
		c0.4-0.2,0.7-0.3,0.9-0.4h0.1c0.1,0,0.1,0.1,0.2,0.1C117.6,40.9,117.7,41,117.7,41.1z M111.6,37.2c0-0.6-0.4-0.8-1.1-0.8
		c-0.4,0-0.8,0.3-1.1,0.9c-0.3,0.6-0.4,1.2-0.4,2c0,0.3,0,0.6,0.1,0.9c0,0.3,0.1,0.6,0.2,0.8c0.7-0.7,1.2-1.4,1.7-2
		C111.4,37.9,111.6,37.3,111.6,36.9z"/>
        <path class="black-text" d="M150.2,41.1c0,0.2-0.1,0.3-0.2,0.4l-2.7,1.1c-0.4,0.2-0.9,0.4-1.5,0.6c-0.6,0.3-1.3,0.5-2,0.8c-0.7,0.2-1.4,0.5-2.1,0.6
		c-0.7,0.2-1.3,0.3-1.8,0.3c-0.9,0-1.4-0.4-1.4-1.3c0-0.6,0.2-1.3,0.5-2.1c0.3-0.8,0.7-1.6,1.1-2.3c0-0.2-0.1-0.2-0.2-0.2
		c-0.2,0-0.4,0.1-0.6,0.2c-0.8,0.6-1.7,1.3-2.6,2c-0.9,0.7-1.7,1.3-2.6,1.8c-0.8,0.5-1.6,0.9-2.4,1.3c-0.8,0.3-1.5,0.5-2.1,0.5
		c-0.2,0-0.4-0.1-0.7-0.2c-0.3-0.1-0.4-0.3-0.4-0.6c0-0.3,0.1-0.8,0.4-1.3c0.3-0.5,0.6-1.1,0.9-1.6c0.3-0.6,0.6-1.1,0.9-1.5
		c0.3-0.4,0.4-0.7,0.4-0.8c0,0,0-0.1-0.1-0.1c-0.2,0-0.5,0.2-1.1,0.5c-0.6,0.3-1.2,0.7-1.9,1.2c-0.7,0.5-1.5,1-2.3,1.5
		c-0.8,0.6-1.6,1.1-2.4,1.5c-0.8,0.5-1.5,0.9-2.1,1.2c-0.6,0.3-1.1,0.5-1.4,0.5c-0.2,0-0.4-0.1-0.6-0.2c-0.2-0.2-0.3-0.4-0.3-0.6
		c0-0.3,0.1-0.7,0.4-1.1c0.3-0.4,0.6-0.8,1-1.3c0.4-0.4,0.7-0.8,1.1-1.2c0.4-0.4,0.7-0.7,0.9-1c0,0,0.1-0.1,0.1-0.2
		c0-0.1-0.1-0.2-0.2-0.2c0,0-0.3,0.1-0.6,0.3c-0.4,0.2-0.8,0.4-1.3,0.7c-0.5,0.3-1,0.5-1.6,0.8c-0.6,0.3-1,0.5-1.4,0.7
		c-0.3,0.1-0.6,0.2-0.9,0.4c-0.3,0.1-0.7,0.3-1,0.4c-0.1,0-0.1,0-0.2-0.2c-0.1-0.1-0.1-0.2-0.1-0.3c0-0.2,0.1-0.3,0.2-0.4
		c0.3-0.1,0.6-0.2,0.9-0.3c0.3-0.1,0.5-0.2,0.8-0.3c1-0.4,2-0.9,2.9-1.4c0.9-0.5,1.7-1,2.4-1.4c0.8-0.5,1.6-1,2.3-1.5
		c0.1,0,0.2-0.1,0.4-0.1c0.2-0.1,0.3-0.1,0.5-0.1c0.3,0,0.5,0.2,0.5,0.7c0,0.3-0.2,0.7-0.5,1.2s-0.8,1-1.2,1.5
		c-0.5,0.5-0.9,1-1.2,1.4c-0.4,0.5-0.5,0.8-0.5,1c0,0.3,0.2,0.5,0.5,0.5c0.2,0,0.7-0.2,1.4-0.7c0.7-0.5,1.5-1,2.5-1.6
		c0.9-0.6,1.8-1.2,2.8-1.8c0.9-0.6,1.7-1.1,2.3-1.4c0.2-0.1,0.5-0.3,1-0.7c0.5-0.3,1-0.5,1.4-0.5c0.2,0,0.3,0.1,0.4,0.2
		c0.1,0.1,0.1,0.3,0.1,0.5c0,0.3-0.2,0.7-0.5,1.3c-0.3,0.5-0.7,1.1-1.1,1.6s-0.8,1.1-1.1,1.6c-0.3,0.5-0.5,0.9-0.5,1.1
		c0,0.4,0.2,0.5,0.7,0.5c0.7,0,1.6-0.4,2.5-1.1c1-0.7,2-1.5,3-2.4c1-0.9,2-1.7,2.9-2.4c0.9-0.7,1.7-1.1,2.3-1.1
		c0.2,0,0.3,0.1,0.4,0.2c0,0.1,0.1,0.3,0.1,0.3c0,0.2,0,0.3-0.1,0.5c-0.1,0.2-0.2,0.3-0.2,0.5c-0.1,0.2-0.3,0.4-0.6,0.8
		c-0.3,0.4-0.6,0.8-0.8,1.3c-0.3,0.5-0.5,1-0.7,1.5c-0.2,0.5-0.3,1-0.3,1.4c0,0.7,0.4,1.1,1.3,1.1c0.4,0,0.9-0.1,1.5-0.2
		c0.5-0.1,1.1-0.3,1.6-0.5c0.5-0.2,1-0.4,1.5-0.5c0.5-0.2,0.8-0.3,1-0.4c0.8-0.3,1.4-0.6,1.8-0.7c0.2-0.1,0.5-0.2,0.7-0.3
		c0.1,0,0.1,0.1,0.2,0.1C150.2,40.9,150.2,41,150.2,41.1z"/>
        <path class="black-text" d="M166,41.1c0,0.1,0,0.2-0.1,0.3c0,0-0.1,0.1-0.2,0.1c-2.5,1.1-4.6,1.7-6.2,1.7c-1,0-1.8-0.3-2.4-1c-1,1-2.2,1.9-3.5,2.6
		c-1.3,0.7-2.6,1.1-3.9,1.1c-0.6,0-1-0.1-1.3-0.4c-0.3-0.3-0.5-0.7-0.5-1.4c0-0.8,0.4-1.8,1.1-2.9c0.7-1.2,1.6-2.3,2.7-3.4
		c1-1.1,2.1-2,3.2-2.8c1.1-0.8,2-1.1,2.7-1.1c0.2,0,0.4,0.1,0.6,0.2c0.2,0.1,0.3,0.3,0.3,0.4c0,0.1-0.1,0.1-0.2,0.1
		c-0.1,0-0.2,0-0.4,0c-0.5,0-1.2,0.3-2,0.9c-0.9,0.6-1.7,1.4-2.6,2.2c-0.8,0.8-1.6,1.7-2.2,2.6c-0.6,0.9-0.9,1.7-0.9,2.3
		c0,0.9,0.4,1.3,1.3,1.3c0.7,0,1.5-0.2,2.4-0.8c0.9-0.5,1.7-1.1,2.5-1.8c-0.3-0.5-0.4-1.2-0.4-2c0-0.6,0.1-1.1,0.3-1.7
		c0.2-0.6,0.4-1.1,0.8-1.5c0.3-0.4,0.7-0.8,1.2-1.1c0.5-0.3,1-0.4,1.5-0.4c0.8,0,1.1,0.4,1.1,1.1c0,0.6-0.3,1.4-0.8,2.4
		s-1.3,1.9-2.2,2.9c0.4,0.6,1.1,0.8,1.9,0.8c0.6,0,1.1-0.1,1.7-0.2c0.6-0.1,1.2-0.2,1.7-0.4c0.5-0.1,1-0.3,1.4-0.5
		c0.4-0.2,0.7-0.3,0.9-0.4h0.1c0.1,0,0.1,0.1,0.2,0.1C166,40.9,166,41,166,41.1z M160,36.9c0-0.6-0.4-0.8-1.1-0.8
		c-0.4,0-0.8,0.3-1.1,0.9c-0.3,0.6-0.4,1.2-0.4,2c0,0.3,0,0.6,0.1,0.9c0,0.3,0.1,0.6,0.2,0.8c0.7-0.7,1.2-1.4,1.7-2
		C159.7,37.9,160,37.3,160,36.9z"/>
        <path class="black-text" d="M177.4,36c0,0.1-0.2,0.4-0.5,0.8c-0.3,0.5-0.7,1-1,1.5c-0.4,0.6-0.7,1.1-1.1,1.7c-0.3,0.6-0.6,1-0.7,1.3
		c-0.2,0.6-0.2,1.1,0,1.5c0.2,0.4,0.8,0.7,1.8,0.8c0.4,0,1,0,1.6-0.1c0.6-0.1,1.2-0.2,1.8-0.4c0.6-0.2,1.1-0.3,1.7-0.5
		c0.5-0.2,0.9-0.3,1.2-0.4c0.8-0.2,1.4-0.3,1.8-0.5s0.8-0.3,1.1-0.3c0.1,0,0.1,0.1,0.2,0.2c0,0.1,0,0.2,0,0.3
		c-0.1,0.2-0.2,0.3-0.4,0.4l-3,1c-0.4,0.1-1,0.3-1.7,0.5c-0.7,0.2-1.5,0.4-2.3,0.6c-0.8,0.2-1.6,0.4-2.3,0.5
		c-0.8,0.1-1.4,0.2-1.9,0.1c-0.5,0-0.9-0.1-1.2-0.3c-0.3-0.2-0.5-0.4-0.6-0.6c-0.1-0.2-0.2-0.5-0.2-0.8c0-0.3,0.1-0.6,0.2-1
		c0.1-0.3,0.3-0.6,0.5-1.1c0.3-0.5,0.6-0.9,0.9-1.4c0.3-0.5,0.6-1,0.9-1.4c0.3-0.5,0.5-0.9,0.6-1.2c0.1-0.3,0.1-0.5,0-0.7
		c-0.1-0.1-0.5-0.1-1,0.2c-1,0.6-1.9,1.2-2.6,1.6c-0.7,0.4-1.5,0.9-2.3,1.4c-0.8,0.5-1.5,0.9-2,1.1c-0.1,0-0.1,0.1-0.2,0
		c-0.1,0-0.1,0-0.2,0c-0.2,0-0.4,0-0.4-0.1c-0.1-0.1-0.2-0.1-0.2-0.1c0-0.1,0.1-0.2,0.4-0.3c0.8-0.4,1.8-0.9,2.9-1.5
		c1.1-0.6,2.1-1.2,3-1.8s1.8-1.1,2.5-1.6c0.7-0.5,1.1-0.8,1.3-0.8c0.1-0.1,0.3-0.1,0.4-0.1c0.2,0,0.3,0,0.4,0c0.7-0.1,1,0.1,1.1,0.4
		C177.6,35.2,177.5,35.6,177.4,36z"/>
        <path class="black-text" d="M203.5,36.5c0,0.8-0.4,1.7-1.3,2.5c-0.9,0.8-1.9,1.6-3.1,2.3c-1.2,0.7-2.4,1.2-3.6,1.6c-1.2,0.4-2.2,0.7-3,0.7
		c-0.7,0-1.2-0.1-1.4-0.5c-0.2-0.3-0.4-0.5-0.5-0.7c0,0-0.1-0.1-0.1-0.2c0-0.2,0.1-0.4,0.2-0.6c0.1-0.2,0.3-0.3,0.5-0.5
		c0.2-0.2,0.4-0.3,0.6-0.4c0.2-0.1,0.3-0.1,0.4-0.1c0.3,0,0.5,0.1,0.6,0.2c0.1,0.2,0.2,0.3,0.3,0.5c0.1,0.2,0.3,0.3,0.5,0.5
		c0.3,0.2,0.6,0.3,1.2,0.3c0.7,0,1.4-0.1,2.1-0.4c0.7-0.3,1.3-0.6,1.9-1.1c0.6-0.5,1.1-1,1.4-1.5c0.4-0.5,0.6-1.1,0.6-1.6
		c0-0.5-0.2-0.9-0.6-1c-0.4-0.2-0.8-0.3-1.2-0.3c-0.8,0-1.7,0.2-2.9,0.6c-1.2,0.4-2.5,1-4.1,1.7c-2.1,2.4-4.2,4.9-6.2,7.6
		s-4.1,5.3-6.1,8c-2,2.6-3.9,5.1-5.8,7.6c-1.9,2.4-3.7,4.5-5.5,6.4c-1.8,1.8-3.5,3.3-5.1,4.4c-1.6,1.1-3.2,1.6-4.6,1.6
		c-0.8,0-1.4-0.2-1.9-0.6c-0.5-0.4-0.8-1-0.8-1.9c0-1.6,0.5-3.4,1.5-5.4c1-1.9,2.4-3.9,4.1-6c1.7-2,3.7-4.1,6-6.1
		c2.3-2,4.6-4,7.1-5.9c2.5-1.9,5-3.7,7.6-5.3c2.6-1.7,5-3.1,7.4-4.3c0.4-0.7,0.8-1.3,1.2-1.8c0.4-0.5,0.7-1,1-1.3
		c0.3-0.4,0.6-0.8,0.8-1.1c0-0.2,0.1-0.3,0.3-0.3c0.2,0,0.4-0.1,0.6-0.1c0.3,0,0.6,0.1,0.8,0.1c0.3,0,0.4,0.1,0.4,0.4
		c0,0.2-0.2,0.5-0.5,1c-0.3,0.5-0.6,0.9-0.8,1.1l-0.4,0.4c1.6-0.7,3-1.3,4.4-1.7c1.3-0.4,2.4-0.6,3.3-0.6c0.6,0,1.1,0.2,1.7,0.6
		C203.2,35.6,203.5,36,203.5,36.5z M188.8,40.2c-2,1.1-4.2,2.4-6.5,3.9c-2.3,1.5-4.5,3-6.7,4.7c-2.2,1.7-4.3,3.5-6.4,5.3
		c-2,1.9-3.8,3.7-5.3,5.6c-1.5,1.9-2.7,3.7-3.7,5.5c-0.9,1.8-1.4,3.5-1.4,5.1c0,0.3,0.1,0.7,0.3,1.1c0.2,0.4,0.7,0.7,1.4,0.7
		c0.9,0,2-0.6,3.4-1.6c1.4-1.1,2.9-2.5,4.6-4.3c1.7-1.8,3.5-3.8,5.3-6.1c1.8-2.3,3.7-4.6,5.5-7c1.8-2.4,3.5-4.7,5.2-7
		C186.1,44,187.6,42,188.8,40.2z"/>
        <path class="black-text" d="M223.6,41.1c0,0.2-0.1,0.3-0.2,0.4l-2.7,1.1c-0.4,0.2-0.9,0.4-1.5,0.6c-0.6,0.3-1.3,0.5-2,0.8c-0.7,0.2-1.4,0.5-2.1,0.6
		c-0.7,0.2-1.3,0.3-1.8,0.3c-0.8,0-1.3-0.3-1.3-0.8c0-0.2,0-0.4,0.1-0.6c0.1-0.3,0.2-0.5,0.4-0.8c-0.3,0.2-0.8,0.5-1.3,0.8
		s-1.2,0.6-1.8,0.8c-0.6,0.3-1.3,0.5-2,0.7c-0.7,0.2-1.3,0.3-1.8,0.3c-0.8,0-1.3-0.1-1.7-0.5c-0.3-0.3-0.5-0.7-0.5-1.1
		c0-0.8,0.4-1.7,1.2-2.8c0.8-1.1,1.8-2.2,3.1-3.2c1.2-1,2.6-1.9,4.1-2.6c1.5-0.7,2.9-1.1,4.3-1.1c0.7,0,1.2,0.1,1.4,0.4
		c0.3,0.2,0.4,0.6,0.4,1c0,0.6-0.3,1.2-0.9,1.7c-0.6,0.5-1.1,0.9-1.6,1.3c-0.2,0.1-0.3,0.1-0.4,0.1s-0.2,0-0.3-0.1
		c-0.1-0.1-0.2-0.2-0.2-0.4c0-0.2,0.2-0.5,0.5-0.9c0.2-0.2,0.3-0.4,0.6-0.7c0.2-0.3,0.3-0.5,0.3-0.8c0-0.2-0.1-0.3-0.2-0.4
		c-0.1-0.1-0.4-0.1-0.9-0.1c-0.7,0-1.5,0.3-2.5,0.8c-1,0.5-2,1.1-2.9,1.9c-0.9,0.7-1.7,1.5-2.4,2.3c-0.7,0.8-1,1.5-1,2.1
		c0,0.4,0.2,0.8,0.5,1c0.4,0.2,0.8,0.3,1.2,0.3c0.4,0,0.9-0.1,1.5-0.3c0.6-0.2,1.1-0.4,1.6-0.7c0.5-0.2,1-0.5,1.4-0.8
		c0.4-0.3,0.7-0.4,0.8-0.6c0.1-0.1,0.2-0.2,0.4-0.4c0.2-0.2,0.3-0.2,0.5-0.2c0.1,0,0.2,0,0.4,0.1c0.2,0.1,0.2,0.2,0.2,0.4
		c-0.2,0.3-0.3,0.6-0.4,0.8c-0.1,0.2-0.1,0.5-0.1,0.7c0,0.5,0.4,0.8,1.1,0.8c0.4,0,0.9-0.1,1.5-0.2c0.5-0.1,1.1-0.3,1.6-0.5
		c0.5-0.2,1-0.4,1.5-0.5c0.5-0.2,0.8-0.3,1-0.4c0.8-0.3,1.4-0.6,1.8-0.7c0.2-0.1,0.5-0.2,0.7-0.3c0.1,0,0.2,0.1,0.2,0.1
		C223.5,40.9,223.6,41,223.6,41.1z"/>
        <path class="black-text" d="M211.4,70.4c0-0.4,0.9-1.9,2.8-4.7c1.9-2.8,4.5-6.6,7.9-11.3c0.3-0.4,0.6-0.8,1-1.4c0.4-0.6,0.9-1.2,1.3-1.8
		c0.5-0.6,0.9-1.2,1.3-1.8c0.4-0.6,0.8-1.1,1-1.5c0.7-0.9,1.4-1.8,2-2.7c0.7-0.9,1.4-1.8,2-2.7c-2.8,1.8-4.9,2.8-6.5,2.9
		c-0.5,0-1.1-0.1-1.7-0.5c-0.6-0.4-0.9-0.9-1-1.5c0-1,0.3-2,1-3c0.7-1,1.6-2,2.7-2.9c1.1-0.9,2.2-1.6,3.3-2.2c1.1-0.6,2.1-0.9,2.8-1
		c0.7-0.1,1.2,0,1.5,0.4c0.3,0.3,0.5,0.6,0.6,0.8c0,0,0.1,0,0.1,0.1c0,0.1,0,0.1,0.1,0.2c0,0.2-0.1,0.4-0.2,0.6
		c-0.1,0.2-0.3,0.4-0.4,0.6c-0.2,0.2-0.3,0.4-0.5,0.5c-0.2,0.1-0.3,0.2-0.4,0.2c-0.3,0-0.5,0-0.6-0.2c-0.1-0.2-0.2-0.4-0.4-0.6
		c-0.1-0.2-0.3-0.4-0.5-0.6c-0.3-0.2-0.7-0.3-1.1-0.2c-0.7,0.1-1.3,0.3-2,0.7c-0.6,0.4-1.2,0.9-1.7,1.4c-0.5,0.6-0.9,1.2-1.2,1.8
		c-0.3,0.7-0.4,1.3-0.4,1.9c0.1,0.6,0.5,1,1,1.3c0.6,0.2,1,0.3,1.4,0.3c0.6-0.1,1.4-0.3,2.3-0.8c0.9-0.4,1.9-1,3.1-1.7
		c2.8-3.7,5.8-7.5,8.9-11.3c3.1-3.8,6.1-7.4,9.1-10.7c3-3.4,5.8-6.4,8.5-9c2.7-2.6,5.1-4.7,7.2-6.1c0.8-0.3,1.2-0.5,1.3-0.4
		c0.1,0,0.2,0.2,0.1,0.6c-1.4,0.9-3.2,2.4-5.4,4.5c-2.2,2.1-4.6,4.6-7.2,7.5c-2.6,2.9-5.4,6.1-8.2,9.5c-2.9,3.4-5.7,6.9-8.5,10.4
		c0.8-0.6,1.7-1,2.6-1.3c0.9-0.3,1.9-0.4,2.8-0.4c1.2,0.1,1.8,0.7,1.8,1.9c0,0.9-0.3,1.8-0.8,2.7c-0.6,0.9-1.3,1.8-2.1,2.5
		c-0.8,0.8-1.7,1.5-2.6,2c-0.9,0.6-1.7,0.9-2.4,1c-0.6,0.2-1.2,0.4-1.7,0.5c-0.6,0.1-1,0.1-1.5,0c-0.4-0.1-0.8-0.3-1-0.7
		c-0.2-0.4-0.3-0.9-0.2-1.7c-0.7,1-1.5,2-2.3,3s-1.4,1.8-1.8,2.4c-0.4,0.5-0.8,1-1.3,1.7c-0.5,0.7-1,1.3-1.5,2c-0.5,0.7-1,1.3-1.5,2
		c-0.5,0.6-0.9,1.2-1.3,1.7c-1.5,2.1-2.9,4-4.2,5.8c-1.3,1.8-2.3,3.3-3.2,4.7c-0.9,1.3-1.6,2.4-2.1,3.3c-0.5,0.9-0.8,1.4-0.8,1.6
		c-0.3,0.5-0.6,0.9-0.8,1c-0.2,0.2-0.4,0.2-0.5,0.1c-0.1-0.1-0.2-0.2-0.2-0.5C211.3,71.1,211.3,70.8,211.4,70.4z M233.8,41.6
		c-0.1,1,0.1,1.7,0.5,2.1c0.4,0.4,1,0.5,1.7,0.4c0.7-0.1,1.5-0.4,2.3-0.9c0.8-0.5,1.6-1.1,2.3-1.7c0.7-0.7,1.3-1.4,1.7-2.1
		c0.4-0.8,0.6-1.5,0.5-2.1c-0.1-0.4-0.2-0.8-0.4-1c-0.2-0.2-0.5-0.3-1-0.4c-0.7-0.1-1.5,0.1-2.4,0.5c-0.9,0.4-1.7,0.9-2.5,1.6
		c-0.4,0.5-0.8,0.9-1.1,1.2c-0.3,0.3-0.5,0.6-0.7,0.8c-0.2,0.2-0.4,0.4-0.5,0.7C234.1,40.9,233.9,41.2,233.8,41.6z"/>
        <path class="black-text" d="M269.5,41.1c0,0.2-0.1,0.3-0.2,0.4l-2.7,1.1c-0.4,0.2-0.9,0.4-1.5,0.6c-0.6,0.3-1.3,0.5-2,0.8c-0.7,0.2-1.4,0.5-2.1,0.6
		c-0.7,0.2-1.3,0.3-1.8,0.3s-0.9-0.1-1.2-0.3s-0.5-0.5-0.7-0.8c-0.2-0.3-0.3-0.6-0.4-0.8c-0.1-0.3-0.1-0.5-0.1-0.7
		c0-0.6,0.1-1.1,0.4-1.6c0.3-0.5,0.4-0.8,0.5-0.9c0,0,0-0.1-0.1-0.1c-0.4,0.3-0.9,0.7-1.7,1.2c-0.7,0.5-1.6,1-2.5,1.6
		c-0.9,0.5-1.9,1-2.8,1.4c-0.9,0.4-1.8,0.6-2.6,0.6c-0.4,0-0.8-0.2-1.1-0.6c-0.3-0.4-0.5-0.8-0.5-1.3c0-0.5,0.2-1,0.5-1.6
		c0.4-0.6,0.8-1.2,1.3-1.7c0.5-0.6,1-1.1,1.5-1.6c0.5-0.5,0.8-0.8,1.1-1c0,0,0-0.1,0.1-0.1h0.2c0.2,0,0.4,0.1,0.5,0.2
		c0,0,0.1,0.1,0.1,0.2c0,0.2-0.1,0.4-0.4,0.7c-0.3,0.3-0.6,0.6-0.9,1c-0.3,0.4-0.7,0.8-0.9,1.2c-0.3,0.4-0.4,0.9-0.4,1.4
		c0,0.4,0.1,0.8,0.4,1c0.2,0.3,0.5,0.5,0.8,0.5c0.8,0,1.7-0.3,2.8-0.9c1.1-0.6,2.1-1.3,3.2-2.1c1.2-0.9,2.4-1.9,3.7-3.1
		c0.3,0,0.5,0.1,0.7,0.1c0.2,0.1,0.3,0.3,0.3,0.6c0,0.1-0.1,0.3-0.2,0.5c-0.1,0.2-0.3,0.6-0.6,1.3c-0.3,0.7-0.4,1.4-0.4,2
		c0,0.1,0,0.3,0,0.5c0,0.2,0.1,0.5,0.2,0.7c0.1,0.2,0.2,0.5,0.4,0.6c0.2,0.2,0.5,0.3,0.9,0.3c0.4,0,0.9-0.1,1.5-0.2
		c0.5-0.1,1.1-0.3,1.6-0.5c0.5-0.2,1-0.4,1.5-0.5c0.5-0.2,0.8-0.3,1-0.4c0.8-0.3,1.4-0.6,1.8-0.7c0.2-0.1,0.5-0.2,0.7-0.3
		c0.1,0,0.2,0.1,0.2,0.1C269.4,40.9,269.5,41,269.5,41.1z"/>
        <path class="black-text" d="M291.1,41.1c0,0.2-0.1,0.3-0.2,0.4l-2.7,1.1c-0.4,0.2-0.9,0.4-1.5,0.6c-0.6,0.3-1.3,0.5-2,0.8c-0.7,0.2-1.4,0.5-2.1,0.6
		c-0.7,0.2-1.3,0.3-1.8,0.3s-0.9-0.1-1.2-0.3s-0.5-0.5-0.7-0.8c-0.2-0.3-0.3-0.6-0.4-0.8c-0.1-0.3-0.1-0.5-0.1-0.7
		c0-0.6,0.1-1.1,0.4-1.6c0.3-0.5,0.4-0.8,0.5-0.9c0,0,0-0.1-0.1-0.1c-0.4,0.3-0.9,0.7-1.7,1.2c-0.7,0.5-1.6,1-2.5,1.6
		c-0.9,0.5-1.9,1-2.8,1.4c-0.9,0.4-1.8,0.6-2.6,0.6c-0.4,0-0.8-0.2-1.1-0.6c-0.3-0.4-0.5-0.8-0.5-1.3c0-0.5,0.2-1,0.5-1.6
		c0.4-0.6,0.8-1.2,1.3-1.7c0.5-0.6,1-1.1,1.5-1.6c0.5-0.5,0.8-0.8,1.1-1c0,0,0-0.1,0.1-0.1h0.2c0.2,0,0.4,0.1,0.5,0.2
		c0,0,0.1,0.1,0.1,0.2c0,0.2-0.1,0.4-0.4,0.7c-0.3,0.3-0.6,0.6-0.9,1c-0.3,0.4-0.7,0.8-0.9,1.2c-0.3,0.4-0.4,0.9-0.4,1.4
		c0,0.4,0.1,0.8,0.4,1c0.2,0.3,0.5,0.5,0.8,0.5c0.8,0,1.7-0.3,2.8-0.9c1.1-0.6,2.1-1.3,3.2-2.1c1.2-0.9,2.4-1.9,3.7-3.1
		c0.3,0,0.5,0.1,0.7,0.1c0.2,0.1,0.3,0.3,0.3,0.6c0,0.1-0.1,0.3-0.2,0.5c-0.1,0.2-0.3,0.6-0.6,1.3c-0.3,0.7-0.4,1.4-0.4,2
		c0,0.1,0,0.3,0,0.5c0,0.2,0.1,0.5,0.2,0.7c0.1,0.2,0.2,0.5,0.4,0.6c0.2,0.2,0.5,0.3,0.9,0.3c0.4,0,0.9-0.1,1.5-0.2
		c0.5-0.1,1.1-0.3,1.6-0.5c0.5-0.2,1-0.4,1.5-0.5c0.5-0.2,0.8-0.3,1-0.4c0.8-0.3,1.4-0.6,1.8-0.7c0.2-0.1,0.5-0.2,0.7-0.3
		c0.1,0,0.2,0.1,0.2,0.1C291.1,40.9,291.1,41,291.1,41.1z"/>
    </g>
    <g>
	    <path class="black-text" d="M38,83.7c0,1.5,0.4,2.7,1.2,3.6c0.8,0.9,2,1.4,3.4,1.4c0.9,0,1.8-0.2,2.6-0.7s1.3-1.1,1.7-2h1.5c-0.4,1.2-1.2,2.2-2.2,3
		c-1.1,0.8-2.2,1.1-3.5,1.1c-1.7,0-3.2-0.6-4.4-1.9s-1.8-2.8-1.8-4.6c0-1.8,0.6-3.3,1.8-4.5s2.6-1.9,4.4-1.9c1.3,0,2.5,0.4,3.5,1.1
		c1,0.7,1.7,1.7,2.2,2.9h-1.5c-0.8-1.7-2.2-2.5-4.2-2.5c-1.5,0-2.6,0.5-3.4,1.4C38.4,81,38,82.2,38,83.7z"/>
        <path class="black-text" d="M49.6,83.7c0-1.8,0.6-3.3,1.8-4.6c1.2-1.2,2.7-1.9,4.5-1.9c1.8,0,3.3,0.6,4.5,1.9c1.2,1.2,1.8,2.8,1.8,4.6
		c0,1.8-0.6,3.3-1.8,4.6c-1.2,1.2-2.7,1.9-4.5,1.9c-1.8,0-3.3-0.6-4.5-1.9C50.2,87,49.6,85.5,49.6,83.7z M51,83.7
		c0,1.5,0.4,2.7,1.3,3.6c0.9,0.9,2.1,1.4,3.5,1.4c1.5,0,2.7-0.5,3.6-1.4c0.9-0.9,1.3-2.1,1.3-3.6c0-1.5-0.4-2.7-1.3-3.7
		s-2.1-1.4-3.6-1.4c-1.5,0-2.7,0.5-3.5,1.4C51.5,81,51,82.2,51,83.7z"/>
        <path class="black-text" d="M70.5,89.9V77.6h4.7c0.9,0,1.6,0.3,2.2,1c0.6,0.6,0.9,1.4,0.9,2.3c0,1.2-0.5,2-1.6,2.5v0.1C78.2,84,79,85,79,86.5
		c0,1.1-0.3,1.9-1,2.5c-0.7,0.6-1.6,0.9-2.7,0.9H70.5z M71.9,78.9v4h2.8c0.7,0,1.2-0.2,1.6-0.5c0.4-0.3,0.6-0.8,0.6-1.5
		c0-0.6-0.2-1.1-0.6-1.4c-0.4-0.4-0.9-0.5-1.5-0.5H71.9z M71.9,84.1v4.4h3.2c1.6,0,2.4-0.7,2.4-2.2c0-0.7-0.3-1.3-0.8-1.7
		c-0.5-0.4-1.1-0.5-1.8-0.5H71.9z"/>
        <path class="black-text" d="M82.4,77.6v12.3H81V77.6H82.4z M88.2,89.9l-5.8-6.5l5.5-5.9h1.8l-5.7,5.8l6.1,6.5H88.2z"/>
        <path class="black-text" d="M99.8,77.5h1.6l-7,17.7h-1.6l2.2-5.5l-5-12.2h1.6l4.2,10.1h0.1L99.8,77.5z"/>
        <path class="black-text" d="M103.4,83.7c0,1.5,0.4,2.7,1.2,3.6c0.8,0.9,2,1.4,3.4,1.4c0.9,0,1.8-0.2,2.6-0.7s1.3-1.1,1.7-2h1.5c-0.4,1.2-1.2,2.2-2.2,3
		c-1.1,0.8-2.2,1.1-3.5,1.1c-1.7,0-3.2-0.6-4.4-1.9s-1.8-2.8-1.8-4.6c0-1.8,0.6-3.3,1.8-4.5s2.6-1.9,4.4-1.9c1.3,0,2.5,0.4,3.5,1.1
		c1,0.7,1.7,1.7,2.2,2.9h-1.5c-0.8-1.7-2.2-2.5-4.2-2.5c-1.5,0-2.6,0.5-3.4,1.4C103.8,81,103.4,82.2,103.4,83.7z"/>
        <path class="black-text" d="M114.9,83.7c0-1.8,0.6-3.3,1.8-4.6c1.2-1.2,2.7-1.9,4.5-1.9c1.8,0,3.3,0.6,4.5,1.9c1.2,1.2,1.8,2.8,1.8,4.6
		c0,1.8-0.6,3.3-1.8,4.6c-1.2,1.2-2.7,1.9-4.5,1.9c-1.8,0-3.3-0.6-4.5-1.9C115.5,87,114.9,85.5,114.9,83.7z M116.4,83.7
		c0,1.5,0.4,2.7,1.3,3.6c0.9,0.9,2.1,1.4,3.5,1.4c1.5,0,2.7-0.5,3.6-1.4c0.9-0.9,1.3-2.1,1.3-3.6c0-1.5-0.4-2.7-1.3-3.7
		s-2.1-1.4-3.6-1.4c-1.5,0-2.7,0.5-3.5,1.4C116.8,81,116.4,82.2,116.4,83.7z"/>
        <path class="black-text" d="M136,88.2l4.3-10.7h2.2v12.3h-1.4v-9.6c0-0.4,0-0.8,0-1.1h-0.1l-4.4,10.7h-1.2l-4.6-11c0,0.6,0.1,1.1,0.1,1.4v9.6h-1.4
		V77.6h2.3L136,88.2z"/>
        <path class="red-text" d="M185.4,85.2c0,0.2-0.1,0.4-0.2,0.5c-2.2,0.9-4.3,1.7-6.4,2.4c-1.8,0.6-3.6,1.1-5.5,1.7
		c-1.9,0.5-3.5,0.8-4.8,0.8c-1.2,0-2.4-0.4-3.4-1.2c-1-0.8-1.5-1.9-1.5-3.4c0-1.4,0.5-2.8,1.5-4.2c1-1.4,2.3-2.7,3.7-3.8
		c1.5-1.1,3-2,4.7-2.8c1.7-0.7,3.1-1.1,4.5-1.1c0.4,0,0.7,0.1,1,0.2c0.6,0.3,0.9,0.9,0.9,1.8c0,0.5-0.2,1.1-0.6,1.6
		c-0.4,0.5-0.8,1-1.3,1.4c-0.6,0.5-1.2,0.9-1.9,1.4c-0.1,0-0.2,0-0.3,0.1c-0.3,0.1-0.7,0.2-1,0.2c-0.3,0-0.4-0.2-0.4-0.6
		c0-0.3,0.2-0.6,0.5-0.9c0.4-0.3,1-0.7,1.6-1.4c0.7-0.7,1-1.3,1-1.8c0-0.4-0.3-0.6-1-0.6c-0.8,0-1.8,0.3-2.9,0.8s-2.2,1.3-3.2,2.1
		c-1,0.8-1.9,1.8-2.6,2.8c-0.7,1-1.1,2-1.1,3c0,1.3,0.4,2.3,1.3,3c0.9,0.7,2.1,1.1,3.8,1.1c1.4,0,2.9-0.2,4.4-0.6
		c1.5-0.4,3-0.8,4.3-1.2c1.5-0.5,3.1-1.1,4.6-1.8c0.1,0,0.2,0.1,0.3,0.2C185.3,84.9,185.4,85.1,185.4,85.2z"/>
        <path class="red-text" d="M211.2,85.2c0,0.2-0.1,0.4-0.2,0.5c-1.8,0.8-3.6,1.5-5.4,2.1c-1.5,0.5-3.2,1-4.8,1.5
		c-1.7,0.5-3.2,0.7-4.4,0.7c-1.6-0.2-2.4-0.8-2.4-2c0-0.7,0.2-1.5,0.7-2.4c0.5-0.9,1-1.7,1.7-2.5c0.6-0.8,1.3-1.5,1.9-2.1
		c0.6-0.6,1.1-1,1.3-1.1c-0.4,0.1-1.2,0.2-2.6,0.3c-1.4,0.2-2.8,0.3-4.2,0.4c-0.3,0.5-0.8,1-1.6,1.6s-1.5,1.1-2.3,1.6
		s-1.6,0.9-2.3,1.3c-0.7,0.4-1.2,0.6-1.6,0.8c-0.4,0.2-0.8,0.3-1.2,0.5c-0.5,0.2-0.9,0.3-1.4,0.6c-0.1,0-0.2-0.1-0.3-0.2
		c-0.1-0.1-0.1-0.3-0.1-0.4c0-0.2,0.1-0.3,0.2-0.4c0.4-0.2,0.8-0.3,1.2-0.5s0.8-0.3,1.1-0.5c1.5-0.7,2.9-1.4,4.1-2.2
		c1.2-0.8,2-1.5,2.4-2.1c-0.7,0-1.3-0.1-1.7-0.2c-0.4-0.1-0.7-0.3-0.9-0.4c-0.2-0.2-0.3-0.4-0.4-0.6c0-0.5,0.3-1.1,0.8-1.8
		c0.6-0.7,1.2-1.3,2-1.9c0.8-0.6,1.6-1.1,2.4-1.5c0.8-0.4,1.4-0.6,1.9-0.6c0.3,0,0.5,0.1,0.6,0.4c0.1,0.2,0.2,0.5,0.2,0.8
		c0,0.3-0.1,0.5-0.3,0.7c-0.1,0.1-0.3,0.3-0.6,0.6c-0.3,0.3-0.6,0.5-0.9,0.8c-0.3,0.3-0.6,0.6-0.8,0.8s-0.4,0.4-0.4,0.4
		c0,0.1,0.1,0.1,0.4,0.2c0.3,0.1,0.8,0.1,1.7,0.1c0.3,0,0.7,0,1.2,0c0.5,0,1.1,0,1.8-0.1c0.7-0.1,1.4-0.2,2.1-0.3
		c0.7-0.1,1.4-0.3,2-0.5c0.2,0,0.3,0.1,0.5,0.3c0.2,0.2,0.2,0.4,0.2,0.6c0,0.7-0.3,1.1-0.9,1.3c-0.4,0.3-0.9,0.7-1.4,1.2
		c-0.6,0.5-1.1,1.1-1.7,1.7c-0.5,0.6-1,1.3-1.4,1.9s-0.6,1.2-0.6,1.8c0,0.5,0.2,0.9,0.6,1.2c0.4,0.3,1.1,0.4,2.1,0.4
		c1.4,0,2.7-0.2,4.1-0.5c1.3-0.3,2.5-0.7,3.6-1c1.3-0.4,2.5-0.9,3.6-1.4c0.1,0,0.2,0.1,0.3,0.2C211.2,84.9,211.2,85.1,211.2,85.2z"
        />
        <path class="red-text" d="M234.3,85.2c0,0.2-0.1,0.4-0.2,0.5l-3.6,1.4c-0.5,0.2-1.2,0.5-2,0.8c-0.8,0.3-1.7,0.7-2.7,1
		s-1.9,0.6-2.8,0.8c-0.9,0.2-1.7,0.4-2.4,0.4c-1.1,0-1.7-0.3-1.7-1c0-0.2,0-0.5,0.1-0.8c0.1-0.3,0.3-0.7,0.5-1.1
		c-0.4,0.3-1,0.7-1.8,1.1c-0.7,0.4-1.5,0.8-2.4,1.1c-0.9,0.3-1.7,0.7-2.6,0.9c-0.9,0.3-1.7,0.4-2.4,0.4c-1,0-1.7-0.2-2.2-0.6
		s-0.7-0.9-0.7-1.5c0-1,0.5-2.3,1.6-3.8c1.1-1.5,2.4-2.9,4.1-4.3c1.7-1.4,3.5-2.5,5.4-3.5c2-1,3.9-1.4,5.7-1.4
		c0.9,0,1.5,0.2,1.9,0.5c0.4,0.3,0.6,0.8,0.6,1.4c0,0.9-0.4,1.6-1.2,2.3c-0.8,0.7-1.5,1.3-2.2,1.7c-0.2,0.1-0.4,0.2-0.5,0.2
		c-0.1,0-0.3-0.1-0.4-0.2c-0.2-0.1-0.3-0.3-0.3-0.5c0-0.3,0.2-0.7,0.6-1.2c0.2-0.2,0.5-0.5,0.8-0.9c0.3-0.4,0.4-0.7,0.4-1
		c0-0.2-0.1-0.4-0.3-0.5c-0.2-0.1-0.6-0.2-1.2-0.2c-0.9,0-2,0.3-3.4,1c-1.3,0.7-2.6,1.5-3.8,2.5c-1.2,1-2.3,2-3.2,3.1
		c-0.9,1.1-1.3,2-1.3,2.8c0,0.6,0.2,1,0.7,1.3c0.5,0.3,1,0.4,1.6,0.4c0.6,0,1.3-0.1,2-0.4c0.7-0.3,1.5-0.6,2.2-0.9
		c0.7-0.3,1.3-0.7,1.9-1c0.6-0.3,0.9-0.6,1.1-0.8c0.1-0.1,0.3-0.3,0.5-0.5c0.2-0.2,0.4-0.3,0.6-0.3c0.1,0,0.3,0.1,0.5,0.2
		c0.2,0.1,0.3,0.3,0.3,0.6c-0.3,0.4-0.5,0.8-0.6,1.1c-0.1,0.3-0.2,0.6-0.2,0.9c0,0.7,0.5,1,1.4,1c0.6,0,1.2-0.1,2-0.3
		c0.7-0.2,1.4-0.4,2.2-0.6s1.4-0.5,2-0.7c0.6-0.2,1.1-0.4,1.4-0.5c1.1-0.4,1.9-0.7,2.4-1c0.3-0.2,0.6-0.3,1-0.4
		c0.1,0,0.2,0.1,0.3,0.2C234.2,84.9,234.3,85.1,234.3,85.2z"/>
        <path class="red-text" d="M254.1,85.2c0,0.2-0.1,0.4-0.2,0.5c-2.2,0.9-4.3,1.7-6.4,2.4c-1.8,0.6-3.6,1.1-5.5,1.7
		c-1.9,0.5-3.5,0.8-4.8,0.8c-1.2,0-2.3-0.4-3.4-1.2c-1-0.8-1.5-1.9-1.5-3.4c0-1.4,0.5-2.8,1.5-4.2c1-1.4,2.3-2.7,3.7-3.8
		c1.5-1.1,3-2,4.7-2.8c1.7-0.7,3.1-1.1,4.5-1.1c0.4,0,0.7,0.1,1,0.2c0.6,0.3,0.9,0.9,0.9,1.8c0,0.5-0.2,1.1-0.6,1.6
		c-0.4,0.5-0.8,1-1.3,1.4c-0.6,0.5-1.2,0.9-1.9,1.4c-0.1,0-0.2,0-0.3,0.1c-0.3,0.1-0.7,0.2-1,0.2c-0.3,0-0.4-0.2-0.4-0.6
		c0-0.3,0.2-0.6,0.5-0.9c0.4-0.3,1-0.7,1.6-1.4c0.7-0.7,1-1.3,1-1.8c0-0.4-0.3-0.6-1-0.6c-0.8,0-1.8,0.3-2.9,0.8s-2.2,1.3-3.2,2.1
		c-1,0.8-1.9,1.8-2.6,2.8s-1.1,2-1.1,3c0,1.3,0.4,2.3,1.3,3s2.1,1.1,3.8,1.1c1.4,0,2.9-0.2,4.4-0.6c1.5-0.4,3-0.8,4.3-1.2
		c1.5-0.5,3.1-1.1,4.6-1.8c0.1,0,0.2,0.1,0.3,0.2C254.1,84.9,254.1,85.1,254.1,85.2z"/>
        <path class="red-text" d="M297.7,85.2c0,0.2-0.1,0.4-0.2,0.5l-3.6,1.4c-0.5,0.2-1.2,0.5-2,0.8c-0.8,0.3-1.7,0.7-2.7,1
		s-1.9,0.6-2.8,0.8c-0.9,0.2-1.7,0.4-2.4,0.4c-1.2,0-1.8-0.6-1.8-1.8c0-0.8,0.2-1.7,0.7-2.8c0.5-1.1,0.9-2.1,1.4-3
		c0-0.2-0.1-0.3-0.2-0.3c-0.3,0-0.5,0.1-0.8,0.3c-1.1,0.9-2.3,1.7-3.4,2.6c-1.2,0.9-2.3,1.7-3.4,2.4c-1.1,0.7-2.1,1.3-3.2,1.7
		c-1,0.4-1.9,0.6-2.8,0.6c-0.3,0-0.6-0.1-1-0.3c-0.4-0.2-0.6-0.4-0.6-0.8c0-0.4,0.2-1,0.6-1.7c0.4-0.7,0.8-1.5,1.2-2.2
		c0.4-0.7,0.8-1.4,1.2-2c0.4-0.6,0.6-1,0.6-1.1c0-0.1-0.1-0.1-0.2-0.1c-0.2,0-0.7,0.2-1.4,0.6c-0.7,0.4-1.6,0.9-2.6,1.6
		c-1,0.6-2,1.3-3.1,2c-1.1,0.7-2.2,1.4-3.2,2c-1,0.6-1.9,1.1-2.8,1.6c-0.8,0.4-1.4,0.6-1.8,0.6c-0.3,0-0.6-0.1-0.8-0.3
		s-0.4-0.5-0.4-0.8c0-0.4,0.2-0.9,0.6-1.5c0.4-0.6,0.8-1.1,1.3-1.7s1-1.1,1.5-1.6c0.5-0.5,0.9-1,1.2-1.3c0.1-0.1,0.1-0.1,0.1-0.2
		c0-0.2-0.1-0.2-0.3-0.2c-0.1,0-0.3,0.1-0.8,0.4c-0.5,0.3-1.1,0.6-1.8,0.9c-0.7,0.3-1.4,0.7-2.1,1.1c-0.7,0.4-1.4,0.7-1.8,0.9
		c-0.4,0.2-0.8,0.3-1.2,0.5c-0.4,0.2-0.9,0.3-1.4,0.6c-0.1,0-0.2-0.1-0.3-0.2c-0.1-0.1-0.1-0.3-0.1-0.4c0-0.3,0.1-0.4,0.2-0.5
		c0.4-0.2,0.8-0.3,1.2-0.4c0.4-0.1,0.7-0.3,1-0.4c1.4-0.6,2.7-1.2,3.9-1.9c1.2-0.7,2.3-1.3,3.2-1.9c1.1-0.6,2.2-1.3,3.1-2
		c0.1-0.1,0.3-0.1,0.5-0.2c0.2-0.1,0.4-0.1,0.6-0.1c0.4,0,0.6,0.3,0.6,0.9c0,0.4-0.2,1-0.7,1.6s-1,1.3-1.6,2
		c-0.6,0.7-1.2,1.3-1.6,1.9c-0.5,0.6-0.7,1.1-0.7,1.4c0,0.4,0.2,0.6,0.6,0.6c0.3,0,1-0.3,1.9-0.9c1-0.6,2.1-1.3,3.3-2.1
		c1.2-0.8,2.5-1.6,3.7-2.4c1.2-0.8,2.2-1.4,3-1.8c0.2-0.2,0.7-0.5,1.4-0.9c0.7-0.5,1.3-0.7,1.8-0.7c0.3,0,0.5,0.1,0.6,0.3
		c0.1,0.2,0.2,0.4,0.2,0.7c0,0.4-0.2,1-0.7,1.7c-0.5,0.7-1,1.4-1.5,2.1s-1.1,1.4-1.5,2.1c-0.5,0.7-0.7,1.2-0.7,1.5
		c0,0.5,0.3,0.7,1,0.7c1,0,2.1-0.5,3.4-1.4c1.3-1,2.6-2,4-3.2c1.3-1.2,2.6-2.2,3.8-3.2c1.2-1,2.2-1.4,3-1.4c0.3,0,0.4,0.1,0.5,0.3
		c0.1,0.2,0.1,0.3,0.1,0.4c0,0.2-0.1,0.4-0.2,0.6c-0.1,0.2-0.2,0.4-0.3,0.6c-0.2,0.2-0.4,0.6-0.8,1.1c-0.4,0.5-0.7,1.1-1.1,1.8
		c-0.3,0.6-0.7,1.3-1,2c-0.3,0.7-0.4,1.3-0.4,1.8c0,1,0.6,1.4,1.7,1.4c0.6,0,1.2-0.1,2-0.3c0.7-0.2,1.4-0.4,2.2-0.6s1.4-0.5,2-0.7
		c0.6-0.2,1.1-0.4,1.4-0.5c1.1-0.4,1.9-0.7,2.4-1c0.3-0.2,0.6-0.3,1-0.4c0.1,0,0.2,0.1,0.3,0.2C297.7,84.9,297.7,85.1,297.7,85.2z"
        />
        <path class="red-text" d="M305.3,86.5c0.5,0.3,1.2,0.4,2,0.4c0.8,0,1.6-0.1,2.4-0.3c0.8-0.2,1.6-0.4,2.3-0.8s1.3-0.7,1.7-1
		c0.2-0.1,0.3,0,0.3,0.2c0,0.3,0,0.5-0.1,0.6c-0.4,0.5-1.1,1-1.9,1.3c-0.8,0.3-1.7,0.6-2.6,0.8c-0.9,0.2-1.9,0.3-2.8,0.2
		c-0.9,0-1.7-0.2-2.3-0.4c-1.5,1.2-2.7,2-3.7,2.2c-1,0.3-2.1,0.4-3.3,0.4c-2,0-3-0.8-3.1-2.5c-0.1-0.9,0.2-1.9,0.9-3.1
		c0.6-1.1,1.4-2.3,2.4-3.4c0.9-1.1,1.9-2.3,3-3.4c1.1-1.1,2.1-2,3-2.8c1.3-1.2,2.4-2,3.1-2.3s1.2-0.4,1.5-0.2
		c0.3,0.2,0.4,0.5,0.4,0.9c0,0.4-0.1,0.8-0.3,1c-0.1,0.2-0.6,0.6-1.4,1.2c-0.8,0.6-2,1.5-3.4,2.7c-1.7,1.7-3.2,3.3-4.4,4.8
		c-1.2,1.5-1.8,2.7-1.8,3.5c0,0.6,0.3,1.1,0.8,1.4c0.6,0.3,1.1,0.5,1.6,0.5c0.7,0,1.3-0.1,1.8-0.3c0.5-0.2,1.1-0.6,1.8-1.2
		c-1-0.5-1.6-1.2-1.8-2.1c-0.3-0.9-0.3-1.9,0-2.8c0.3-1,0.8-1.8,1.7-2.5c0.9-0.7,1.9-1,3.2-1c0.9,0.1,1.5,0.4,1.8,1
		c0.3,0.6,0.4,1.4,0.2,2.2c-0.2,0.9-0.5,1.7-1,2.6C306.6,85.3,306,86,305.3,86.5z M304.1,86c0.7-0.6,1.3-1.3,1.7-2
		c0.4-0.7,0.6-1.3,0.6-1.8c0-1-0.5-1.5-1.5-1.5c-0.6,0-1.1,0.2-1.6,0.7c-0.5,0.5-0.7,1-0.9,1.7c-0.1,0.6-0.1,1.3,0.2,1.8
		C302.9,85.5,303.4,85.9,304.1,86z"/>
        <path class="red-text" d="M332.3,82.2c-0.2,0.2-0.3,0.6-0.6,1.3c-0.2,0.6-0.3,1.4-0.3,2.3c0,0.2,0,0.4,0,0.7c0,0.3,0.1,0.6,0.2,0.9
		c0.1,0.3,0.3,0.6,0.6,0.8c0.3,0.2,0.7,0.4,1.2,0.4c0.6,0,1.3-0.1,2-0.4c0.7-0.2,1.5-0.5,2.2-0.8c0.7-0.3,1.4-0.6,2-0.9
		c0.6-0.3,1.1-0.5,1.4-0.6c1-0.4,1.8-0.7,2.4-1c0.4-0.2,0.7-0.3,1-0.4c0.3,0,0.4,0.2,0.4,0.6c0,0.3-0.1,0.4-0.2,0.5l-3.6,1.4
		c-0.5,0.2-1.2,0.5-2,0.8c-0.8,0.3-1.7,0.7-2.7,1s-1.9,0.6-2.8,0.8c-0.9,0.2-1.7,0.4-2.4,0.4c-0.7,0-1.2-0.1-1.6-0.4s-0.7-0.6-1-1
		c-0.2-0.4-0.4-0.7-0.5-1.1c-0.1-0.4-0.1-0.7-0.1-0.9c0-0.8,0.1-1.5,0.4-2c0.3-0.5,0.5-0.9,0.6-1c-0.3-0.1-0.6-0.1-0.9-0.2
		c-0.3,0.4-0.9,0.9-1.7,1.4c-1,0.7-2.2,1.5-3.5,2.2c-1.3,0.7-2.7,1.3-4,1.9c-1.4,0.5-2.6,0.8-3.6,0.8c-0.6,0-1.1-0.3-1.5-0.8
		c-0.4-0.5-0.6-1.1-0.6-1.7c-0.2-0.6-0.1-1.2,0.2-1.6c0.3-0.5,0.7-0.8,1.1-1c0.4-0.2,0.9-0.2,1.3-0.1c0.4,0.1,0.7,0.5,0.8,1
		c0,0.5,0.2,1,0.5,1.4s0.7,0.6,1.1,0.6c0.5,0,1.1-0.1,1.7-0.4c0.7-0.3,1.4-0.6,2.1-1c0.7-0.4,1.5-0.9,2.2-1.4
		c0.8-0.5,1.5-1.1,2.2-1.6c0.1-0.1,0.1-0.1,0.2-0.2c-1.2-0.4-2.2-0.8-2.9-1.3c-1.1-0.8-1.8-1.6-2-2.4c-0.2-0.8-0.1-1.5,0.4-2.2
		c0.5-0.7,1.2-1.3,2-1.6c0.8-0.3,1.7-0.5,2.7-0.4c1,0.1,1.8,0.6,2.5,1.4c0.3,0.3,0.5,0.8,0.6,1.3c0.1,0.6,0.1,1.1,0,1.8
		c-0.1,0.6-0.3,1.2-0.5,1.9c-0.2,0.3-0.3,0.6-0.5,0.9c0.3,0,0.6-0.1,0.8-0.3c0.5-0.5,1-0.7,1.4-0.6S332,81.9,332.3,82.2z M328,81
		c0.3-0.5,0.5-1.1,0.6-1.6c0.1-0.5,0.1-1-0.1-1.5c-0.2-0.6-0.5-1-1-1.2c-0.5-0.1-1-0.1-1.6,0c-0.5,0.2-1,0.4-1.4,0.8
		c-0.4,0.4-0.6,0.8-0.5,1.3c0.1,0.6,0.4,1.2,0.9,1.8c0.6,0.6,1.3,1.1,2.2,1.4c0.1,0.1,0.1,0.1,0.2,0.2C327.6,81.8,327.8,81.4,328,81
		z"/>
    </g>
</svg>
